<?xml version="1.0" encoding="UTF-8"?>
<!DOCTYPE svg PUBLIC "-//W3C//DTD SVG 1.1//EN" "http://www.w3.org/Graphics/SVG/1.1/DTD/svg11.dtd">
<svg xmlns="http://www.w3.org/2000/svg" version="1.1" width="3840px" height="2160px" style="shape-rendering:geometricPrecision; text-rendering:geometricPrecision; image-rendering:optimizeQuality; fill-rule:evenodd; clip-rule:evenodd" xmlns:xlink="http://www.w3.org/1999/xlink">
<g><path style="opacity:0.979" fill="#000000" d="M 428.5,641.5 C 552.704,642.516 649.871,694.183 720,796.5C 781.734,898.133 789.401,1003.8 743,1113.5C 692.366,1217.17 610.866,1281.01 498.5,1305C 370.894,1323.3 265.394,1284.13 182,1187.5C 120.809,1109.5 96.8087,1021.5 110,923.5C 133.233,805.555 199.4,720.721 308.5,669C 346.998,653.4 386.998,644.233 428.5,641.5 Z M 418.5,747.5 C 490.325,742.766 552.492,765.766 605,816.5C 661.308,879.382 679.808,951.882 660.5,1034C 631.131,1125.85 569.631,1182.01 476,1202.5C 395.983,1213.45 327.316,1189.79 270,1131.5C 216.715,1068.79 199.382,997.121 218,916.5C 241.468,837.885 291.634,785.051 368.5,758C 385.105,753.589 401.772,750.089 418.5,747.5 Z"/></g>
<g><path style="opacity:0.976" fill="#000000" d="M 983.5,733.5 C 1074.48,733.512 1164.98,733.512 1255,733.5C 1352.3,734.166 1414.97,781.166 1443,874.5C 1458.88,948.855 1439.05,1011.69 1383.5,1063C 1363.57,1079.47 1341.23,1091.47 1316.5,1099C 1290.63,1105.78 1264.79,1109.62 1239,1110.5C 1235.94,1111.08 1232.94,1111.74 1230,1112.5C 1227.44,1112.66 1224.77,1112.33 1222,1111.5C 1219.67,1112.17 1217.33,1112.83 1215,1113.5C 1169.72,1112.23 1124.22,1112.23 1078.5,1113.5C 1079.66,1213.79 1079.83,1314.13 1079,1414.5C 1076.27,1416.1 1073.27,1417.1 1070,1417.5C 1043.33,1417.5 1016.67,1417.5 990,1417.5C 987.667,1416.83 985.333,1416.17 983,1415.5C 982.168,1188.1 982.334,960.764 983.5,733.5 Z M 1079.5,812.5 C 1125.34,813.009 1171.51,813.009 1218,812.5C 1223.4,813.004 1228.74,813.671 1234,814.5C 1256.53,813.441 1278.7,818.274 1300.5,829C 1328.4,846.732 1342.4,872.066 1342.5,905C 1343.17,906.333 1343.83,907.667 1344.5,909C 1344.46,914.94 1344.46,920.94 1344.5,927C 1340.13,986.025 1308.96,1019.86 1251,1028.5C 1243.06,1030.24 1235.06,1031.58 1227,1032.5C 1225.33,1032.17 1223.67,1031.83 1222,1031.5C 1219.59,1032.27 1217.09,1032.77 1214.5,1033C 1169.16,1033.83 1123.83,1033.67 1078.5,1032.5C 1079.49,959.06 1079.83,885.726 1079.5,812.5 Z"/></g>
<g><path style="opacity:0.969" fill="#000000" d="M 1903.5,733.5 C 1933.07,733.171 1962.57,733.505 1992,734.5C 1992.5,961.874 1992.66,1189.04 1992.5,1416C 1988.91,1416.21 1985.41,1416.71 1982,1417.5C 1958,1416.17 1934,1416.17 1910,1417.5C 1907.67,1416.83 1905.33,1416.17 1903,1415.5C 1902.17,1188.1 1902.33,960.764 1903.5,733.5 Z"/></g>
<g><path style="opacity:0.951" fill="#000000" d="M 3304.5,733.5 C 3340.17,733.333 3375.83,733.5 3411.5,734C 3412.83,767.433 3412.83,800.933 3411.5,834.5C 3376.21,835.66 3340.88,835.826 3305.5,835C 3304.5,801.24 3304.17,767.406 3304.5,733.5 Z"/></g>
<g><path style="opacity:0.971" fill="#000000" d="M 3135.5,810.5 C 3136.5,810.5 3137.5,810.5 3138.5,810.5C 3138.5,853.167 3138.5,895.833 3138.5,938.5C 3173.5,938.5 3208.5,938.5 3243.5,938.5C 3243.99,961.65 3243.49,984.65 3242,1007.5C 3207.86,1006.84 3173.36,1006.51 3138.5,1006.5C 3138.33,1105.83 3138.5,1205.17 3139,1304.5C 3141.01,1325.05 3151.84,1338.21 3171.5,1344C 3180.96,1346.85 3190.62,1348.02 3200.5,1347.5C 3215.11,1346.53 3229.45,1345.53 3243.5,1344.5C 3243.5,1368.5 3243.5,1392.5 3243.5,1416.5C 3231.83,1418.67 3219.83,1420.67 3207.5,1422.5C 3202.61,1421.19 3197.61,1421.52 3192.5,1423.5C 3191.91,1423.29 3191.41,1422.96 3191,1422.5C 3181,1423.17 3171,1423.83 3161,1424.5C 3155.16,1423.14 3149.49,1422.14 3144,1421.5C 3140.75,1421.37 3137.75,1421.7 3135,1422.5C 3122.83,1419.78 3110.66,1416.62 3098.5,1413C 3085.94,1407.97 3075.44,1400.13 3067,1389.5C 3057.68,1375.59 3052.02,1360.26 3050,1343.5C 3049.75,1337.47 3049.25,1331.47 3048.5,1325.5C 3048.51,1219.33 3048.51,1112.99 3048.5,1006.5C 3021.43,1006.56 2994.59,1006.89 2968,1007.5C 2967.25,1006.87 2966.42,1006.37 2965.5,1006C 2964.17,984.898 2964.17,963.732 2965.5,942.5C 2992.71,941.289 3019.88,941.289 3047,942.5C 3047.75,941.874 3048.58,941.374 3049.5,941C 3048.84,924.406 3048.5,907.739 3048.5,891C 3048.35,873.745 3048.85,856.578 3050,839.5C 3078.29,830.111 3106.79,820.444 3135.5,810.5 Z"/></g>
<g><path style="opacity:0.97" fill="#000000" d="M 1636.5,930.5 C 1642.35,931.684 1648.18,931.684 1654,930.5C 1689.68,931.485 1724.18,938.985 1757.5,953C 1771.67,959.918 1784.67,968.585 1796.5,979C 1811.16,994.821 1820.66,1013.32 1825,1034.5C 1825.97,1040.13 1826.63,1045.8 1827,1051.5C 1827.17,1135.69 1826,1219.85 1823.5,1304C 1824.65,1329.5 1825.82,1355 1827,1380.5C 1828.56,1393.35 1830.06,1406.19 1831.5,1419C 1830.58,1419.37 1829.75,1419.87 1829,1420.5C 1804.42,1419.41 1779.76,1419.41 1755,1420.5C 1753.17,1419.9 1751.34,1419.23 1749.5,1418.5C 1748.56,1414.54 1747.73,1410.54 1747,1406.5C 1745.24,1405.58 1745.08,1404.41 1746.5,1403C 1744.56,1393.7 1742.89,1384.37 1741.5,1375C 1741.83,1374.67 1742.17,1374.33 1742.5,1374C 1741.68,1366.25 1741.18,1358.41 1741,1350.5C 1709.1,1403.6 1662.1,1430.6 1600,1431.5C 1565.58,1431.84 1532.42,1424.68 1500.5,1410C 1448.85,1380.42 1424.51,1336.42 1427.5,1278C 1437.03,1214.27 1471.03,1168.94 1529.5,1142C 1556.85,1131.28 1585.02,1125.12 1614,1123.5C 1620,1122.83 1626,1122.17 1632,1121.5C 1658.96,1121.35 1686.13,1121.52 1713.5,1122C 1721.9,1122.36 1730.23,1123.19 1738.5,1124.5C 1738.1,1105.97 1737.6,1086.97 1737,1067.5C 1734.81,1028.66 1714.81,1005.33 1677,997.5C 1670.18,995.16 1663.68,993.66 1657.5,993C 1632.86,989.901 1609.19,993.234 1586.5,1003C 1566.67,1013.51 1554.17,1029.67 1549,1051.5C 1548,1058.49 1547.17,1065.49 1546.5,1072.5C 1516.59,1072.83 1486.76,1072.5 1457,1071.5C 1459.01,1046.39 1465.68,1022.72 1477,1000.5C 1490.41,979.756 1508.25,963.922 1530.5,953C 1564.59,938.496 1599.92,930.996 1636.5,930.5 Z M 1652.5,1182.5 C 1667.21,1182.69 1682.21,1182.69 1697.5,1182.5C 1702.17,1182.67 1706.83,1182.83 1711.5,1183C 1713.1,1183.27 1714.6,1183.77 1716,1184.5C 1723.43,1184.55 1730.93,1183.89 1738.5,1182.5C 1737.83,1197.93 1737.33,1213.93 1737,1230.5C 1736.18,1258.45 1728.51,1284.45 1714,1308.5C 1698.49,1329 1678.32,1342.83 1653.5,1350C 1624.55,1357.4 1595.55,1356.4 1566.5,1347C 1535.47,1333.79 1519.14,1310.29 1517.5,1276.5C 1517.75,1244.85 1531.75,1221.35 1559.5,1206C 1584.25,1193.58 1610.42,1186.75 1638,1185.5C 1642.94,1184.54 1647.77,1183.54 1652.5,1182.5 Z"/></g>
<g><path style="opacity:0.97" fill="#000000" d="M 2256.5,930.5 C 2262.64,931.696 2268.8,931.696 2275,930.5C 2304.97,931.983 2334.47,937.483 2363.5,947C 2387.02,955.013 2407.19,968.179 2424,986.5C 2435.95,1002.99 2443.61,1021.32 2447,1041.5C 2447.97,1053.98 2448.47,1066.48 2448.5,1079C 2447.41,1154.01 2446.08,1229.01 2444.5,1304C 2444.9,1322.17 2445.4,1340.34 2446,1358.5C 2447.62,1378.89 2449.29,1399.22 2451,1419.5C 2424.28,1419.89 2397.11,1419.89 2369.5,1419.5C 2367.56,1410.62 2366.06,1401.62 2365,1392.5C 2364.5,1392 2364,1391.5 2363.5,1391C 2364.05,1389.6 2364.38,1388.27 2364.5,1387C 2362.93,1374.61 2362.09,1362.11 2362,1349.5C 2327.66,1406.47 2278,1433.8 2213,1431.5C 2178.86,1430.84 2146.36,1422.67 2115.5,1407C 2064.26,1374.65 2042.59,1328.32 2050.5,1268C 2059.19,1218.25 2085.19,1179.91 2128.5,1153C 2161.73,1135.04 2196.9,1125.21 2234,1123.5C 2240.09,1122.69 2246.25,1122.19 2252.5,1122C 2279.5,1121.33 2306.5,1121.33 2333.5,1122C 2342.17,1122.47 2350.5,1123.3 2358.5,1124.5C 2359.28,1100.55 2358.28,1076.71 2355.5,1053C 2349.41,1021.94 2329.91,1003.44 2297,997.5C 2296.5,997 2296,996.5 2295.5,996C 2289.2,994.975 2283.2,993.975 2277.5,993C 2250.72,989.76 2225.39,994.093 2201.5,1006C 2179.04,1022.26 2167.37,1044.26 2166.5,1072C 2136.93,1072.83 2107.43,1072.66 2078,1071.5C 2079.6,1041.7 2088.6,1014.37 2105,989.5C 2115.81,976.192 2128.64,965.359 2143.5,957C 2167.09,944.961 2191.92,937.461 2218,934.5C 2230.89,932.729 2243.72,931.396 2256.5,930.5 Z M 2276.5,1182.5 C 2295.68,1182.45 2315.02,1182.61 2334.5,1183C 2336.1,1183.27 2337.6,1183.77 2339,1184.5C 2346.73,1184.47 2354.57,1183.81 2362.5,1182.5C 2363.13,1207.76 2361.63,1233.1 2358,1258.5C 2347.99,1310.84 2316.83,1342.34 2264.5,1353C 2240.78,1356.66 2217.11,1354.99 2193.5,1348C 2160.3,1335.11 2142.97,1310.78 2141.5,1275C 2142.68,1245.46 2155.85,1222.96 2181,1207.5C 2208.46,1193.4 2237.79,1185.73 2269,1184.5C 2271.61,1183.88 2274.11,1183.21 2276.5,1182.5 Z"/></g>
<g><path style="opacity:0.973" fill="#000000" d="M 2755.5,934.5 C 2795.12,932.827 2832.45,941.327 2867.5,960C 2911.27,988.145 2934.44,1028.31 2937,1080.5C 2937.5,1193.5 2937.67,1306.5 2937.5,1419.5C 2907.2,1420.43 2877.04,1420.77 2847,1420.5C 2845.28,1419.01 2844.12,1417.18 2843.5,1415C 2844.3,1312.55 2844.64,1210.55 2844.5,1109C 2844.63,1063.21 2823.63,1031.88 2781.5,1015C 2752.84,1005.13 2725.17,1004.13 2698.5,1012C 2657.22,1026.28 2630.72,1054.44 2619,1096.5C 2616.17,1108.01 2614.17,1119.67 2613,1131.5C 2612.5,1227.5 2612.33,1323.5 2612.5,1419.5C 2583.27,1419.31 2554.44,1419.65 2526,1420.5C 2524.75,1419.79 2523.58,1418.96 2522.5,1418C 2523.83,1278.67 2523.83,1139.33 2522.5,1000C 2523.21,998.745 2524.04,997.579 2525,996.5C 2525.33,996.833 2525.67,997.167 2526,997.5C 2526.17,979.158 2526.67,960.824 2527.5,942.5C 2556.5,941.667 2585.5,941.5 2614.5,942C 2615,942.5 2615.5,943 2616,943.5C 2616.33,967.5 2616.67,991.5 2617,1015.5C 2642.12,971.173 2679.95,945.006 2730.5,937C 2738.98,936.144 2747.32,935.311 2755.5,934.5 Z"/></g>
<g><path style="opacity:0.976" fill="#000000" d="M 3716.5,938.5 C 3726.83,938.5 3737.17,938.5 3747.5,938.5C 3747.5,968.5 3747.5,998.5 3747.5,1028.5C 3741.05,1028.45 3734.71,1027.12 3728.5,1024.5C 3718.61,1025.39 3708.61,1025.39 3698.5,1024.5C 3695.96,1025.12 3693.46,1025.78 3691,1026.5C 3656.44,1025.29 3627.11,1036.96 3603,1061.5C 3585.82,1086.66 3577.15,1114.66 3577,1145.5C 3576.5,1236.83 3576.33,1328.17 3576.5,1419.5C 3546.47,1419.74 3516.97,1419.74 3488,1419.5C 3487.83,1292.83 3487.33,1166.17 3486.5,1039.5C 3485.57,1040.64 3484.74,1040.64 3484,1039.5C 3482.3,1010.18 3480.8,980.685 3479.5,951C 3479.38,948.308 3479.71,945.475 3480.5,942.5C 3509.83,941.167 3539.17,941.167 3568.5,942.5C 3569.91,970.841 3571.41,999.174 3573,1027.5C 3589.9,981.856 3622.23,953.856 3670,943.5C 3670.33,943.833 3670.67,944.167 3671,944.5C 3686.21,941.942 3701.37,939.942 3716.5,938.5 Z"/></g>
<g><path style="opacity:0.978" fill="#000000" d="M 3313.5,941.5 C 3342.42,941.412 3371.25,941.745 3400,942.5C 3400.67,1100.17 3400.67,1257.83 3400,1415.5C 3398.33,1416.17 3396.67,1416.83 3395,1417.5C 3371,1416.17 3347,1416.17 3323,1417.5C 3319.33,1416.83 3315.67,1416.17 3312,1415.5C 3311.83,1336.67 3311.67,1257.83 3311.5,1179C 3311.5,1099.62 3312.17,1020.46 3313.5,941.5 Z"/></g>
<g><path style="opacity:0.975" fill="#000000" d="M 143.5,1278.5 C 242.179,1320.46 340.679,1363.13 439,1406.5C 537.325,1363.76 635.825,1321.1 734.5,1278.5C 736.804,1280.43 738.638,1282.76 740,1285.5C 755.488,1313.81 770.988,1342.14 786.5,1370.5C 786.167,1371.17 785.833,1371.83 785.5,1372.5C 670.12,1421.46 554.62,1470.13 439,1518.5C 323.671,1469.62 207.838,1420.62 91.5,1371.5C 108.861,1340.48 126.195,1309.48 143.5,1278.5 Z"/></g>
</svg>
